<svg width="119" height="124" viewBox="0 0 119 124" fill="none" xmlns="http://www.w3.org/2000/svg">
<path d="M36.0852 0.853796C54.3401 -7.27382 65.5336 45.3031 65.5336 45.3031C65.5336 45.3031 95.0613 2.24885 108.767 17.8504C122.473 33.452 77.637 59.0808 77.637 59.0808C77.637 59.0808 127.468 75.971 117.684 93.7409C107.9 111.511 68.9964 74.7735 68.9964 74.7735C68.9964 74.7735 70.2661 128.266 50.5135 123.647C30.7608 119.028 51.5527 70.6943 51.5527 70.6943C51.5527 70.6943 2.50599 86.8645 0.082574 66.2398C-2.34084 45.6151 49.4126 52.4806 49.4126 52.4806C49.4126 52.4806 17.8303 8.98141 36.0852 0.853796Z" fill="#FD4B2A"/>
</svg>
