<svg width="256" height="248" viewBox="0 0 256 248" fill="none" xmlns="http://www.w3.org/2000/svg">
<path d="M92.6491 0.533982C113.717 -5.50726 130.79 41.7054 130.79 41.7054C130.79 41.7054 151.114 -4.20136 171.709 3.29483C192.305 10.791 178.366 59.0216 178.366 59.0216C178.366 59.0216 221.791 33.8285 234.048 51.9988C246.304 70.1691 206.677 100.995 206.677 100.995C206.677 100.995 256.618 106.139 255.853 128.043C255.088 149.947 204.91 151.594 204.91 151.594C204.91 151.594 242.29 185.109 228.796 202.38C215.302 219.651 173.74 191.49 173.74 191.49C173.74 191.49 184.281 240.576 163.212 246.617C142.144 252.658 125.072 205.446 125.072 205.446C125.072 205.446 104.748 251.352 84.1521 243.856C63.5565 236.36 77.4957 188.129 77.4957 188.129C77.4957 188.129 34.0699 213.322 21.8139 195.152C9.55787 176.982 49.1842 146.156 49.1842 146.156C49.1842 146.156 -0.756216 141.012 0.00868967 119.108C0.773595 97.2043 50.9511 95.5572 50.9511 95.5572C50.9511 95.5572 13.5717 62.0419 27.0653 44.7708C40.559 27.4997 82.1216 55.6607 82.1216 55.6607C82.1216 55.6607 71.5808 6.57522 92.6491 0.533982Z" fill="#FD4B2A"/>
</svg>
