<svg width="181" height="56" viewBox="0 0 181 56" fill="none" xmlns="http://www.w3.org/2000/svg">
<path d="M131.726 13.0001H138.726C139.926 15.5201 141.406 18.3601 141.886 19.3201C143.046 21.5201 143.206 22.2001 142.726 24.6001H143.366C144.166 19.5601 146.726 12.5601 150.046 12.5601C151.446 12.5601 153.606 13.4401 153.606 16.4401C153.606 19.0001 152.006 21.6001 149.606 21.6001C149.606 20.0801 148.846 19.4001 147.966 19.4001C146.486 19.4001 145.206 21.3601 144.686 24.6001C147.366 29.5601 150.206 34.5601 153.006 38.8001C154.486 41.0401 154.046 42.1201 151.846 42.1201H144.846C143.366 39.0001 141.566 35.4401 139.606 31.7601C138.846 37.0001 136.566 42.5601 133.046 42.5601C131.686 42.5601 129.526 41.6801 129.526 38.0001C129.526 34.8801 131.126 33.5201 133.526 33.5201C133.526 35.0401 134.286 35.7201 135.166 35.7201C136.766 35.7201 138.046 33.4401 138.566 29.8001C136.006 25.1201 133.246 20.3601 130.606 16.3201C129.126 14.0801 129.526 13.0001 131.726 13.0001Z" fill="#FD4B2A"/>
<path d="M103.75 27.5601C103.75 19.1201 109.67 12.5601 116.87 12.5601C124.03 12.5601 129.79 19.1201 129.79 27.5601C129.79 36.0001 124.03 42.5601 116.87 42.5601C109.67 42.5601 103.75 36.0001 103.75 27.5601ZM112.51 27.5601C112.51 38.7601 114.67 41.3201 116.79 41.3201C118.91 41.3201 121.03 38.7601 121.03 27.5601C121.03 16.3601 118.91 13.8401 116.79 13.8401C114.67 13.8401 112.51 16.3601 112.51 27.5601Z" fill="#FD4B2A"/>
<path d="M81.1554 13.44H86.9955C86.5555 17.76 85.5554 22.04 84.7154 26.32H85.3155C86.5555 19.6 88.6754 13 94.0354 13C98.5554 13 100.435 17.72 100.435 22.56C100.435 25.8 99.5955 29 93.2755 29.16V29.8C99.9555 29.52 101.595 33.04 101.595 36.32C101.595 43.24 94.3554 42.56 90.7554 42.56H77.8354C78.5954 34.92 78.6754 24.52 78.0754 16.76C77.9154 14.52 78.9554 13.44 81.1554 13.44ZM89.0754 41.32C91.7954 41.32 92.8755 38.24 92.8755 35.92C92.8755 31.08 88.2755 30.56 86.6755 30.32V37.04C86.7555 40.48 87.6754 41.32 89.0754 41.32ZM86.6755 27.04C86.6755 28.08 87.1154 29.28 88.6754 29.28C91.2354 29.28 91.6755 25.92 91.6755 24.44C91.6755 22.56 91.0354 21.44 89.8354 21.44C87.9555 21.44 86.7155 24.08 86.6755 27.04Z" fill="#FD4B2A"/>
<path d="M58.9396 40.88H59.3396C62.2196 40.88 62.2596 36.4 59.0196 33.56C59.9796 33.24 61.0996 33 62.2196 33C64.8196 33 67.3396 34.24 67.3396 38.04C67.3396 39.92 66.7396 42.12 62.6596 42.12H48.0996C48.8596 33.64 48.9396 24.92 48.3396 16.32C48.1796 14.08 49.2196 13 51.4196 13H62.6596C66.7396 13 67.3396 15.2 67.3396 16.96C67.3396 20.56 64.8596 21.72 62.2996 21.72C61.1396 21.72 60.0196 21.52 59.0196 21.16C62.2196 18.36 62.2196 14.24 59.4596 14.24C58.0196 14.24 57.2196 14.96 57.2196 16.48C57.2196 20.68 57.0596 25.68 54.5796 29.84H55.2196C56.5796 26.16 59.8596 22.96 62.6196 22.96C65.0996 22.96 66.0196 25.44 64.4196 28.56C63.7396 27.92 62.8596 27.6 61.8596 27.6C59.4996 27.6 56.7396 29.44 56.4196 32.36C56.2996 33.76 56.2196 40.88 58.9396 40.88Z" fill="#FD4B2A"/>
<path d="M46.4805 19.7601C46.4805 23.3601 43.6005 24.5601 40.3605 24.5601C38.5605 24.5601 36.6805 24.2001 35.1205 23.6401C40.5605 18.9601 38.5605 13.8801 36.4805 13.8801C34.4405 13.8801 32.9205 18.6001 32.9205 23.9601C32.9205 33.0801 37.3605 35.1601 40.2805 35.1601C43.6405 35.1601 45.5605 32.4001 45.6005 29.4801H46.0405C46.6405 36.8401 42.5605 42.5601 36.6405 42.5601C31.0005 42.5601 25.0405 37.3601 25.0405 27.6401C25.0405 18.8401 29.9605 12.5601 36.9605 12.5601C41.4005 12.5601 46.4805 15.0801 46.4805 19.7601Z" fill="#FD4B2A"/>
<path d="M17.6696 13H23.5096C22.7496 21.48 22.6696 30.24 23.2696 38.8C23.4296 41.04 22.3896 42.12 20.1896 42.12H14.3496C15.1096 33.64 15.1896 24.92 14.5896 16.32C14.4296 14.08 15.4696 13 17.6696 13Z" fill="#FD4B2A"/>
<path fill-rule="evenodd" clip-rule="evenodd" d="M139.18 13.9428C139.026 13.6265 138.874 13.3108 138.726 13.0001H131.726C129.526 13.0001 129.126 14.0801 130.606 16.3201C130.977 16.8882 131.351 17.4706 131.726 18.065C132.206 18.8249 132.687 19.6044 133.17 20.3989C133.222 20.484 133.273 20.5693 133.325 20.6548C133.395 20.7696 133.464 20.8847 133.534 21.0001C133.971 21.7269 134.409 22.4651 134.845 23.2112C134.954 23.397 135.063 23.5833 135.171 23.77C135.173 23.7732 135.175 23.7764 135.177 23.7796C135.512 24.3561 135.846 24.9368 136.178 25.5201C136.245 25.6379 136.312 25.7559 136.379 25.8739C136.826 26.6618 137.271 27.4537 137.71 28.2459C137.727 28.2776 137.745 28.3092 137.763 28.3409C138.032 28.8276 138.3 29.3142 138.566 29.8001C138.555 29.8773 138.544 29.9539 138.532 30.0299C138.448 30.5729 138.347 31.0842 138.231 31.5606C138.14 31.9284 138.041 32.2754 137.933 32.6001C137.926 32.6209 137.919 32.6416 137.912 32.6622C137.808 32.9689 137.696 33.2553 137.577 33.5201C137.119 34.5384 136.554 35.2373 135.917 35.5441C135.676 35.6601 135.425 35.7201 135.166 35.7201C134.606 35.7201 134.095 35.445 133.797 34.8538C133.758 34.7766 133.723 34.6939 133.692 34.6058C133.586 34.3078 133.526 33.9471 133.526 33.5201C132.362 33.5201 131.387 33.8397 130.691 34.5246C129.951 35.2524 129.526 36.3926 129.526 38.0001C129.526 41.6801 131.686 42.5601 133.046 42.5601C133.812 42.5601 134.52 42.2965 135.166 41.83C135.321 41.7182 135.472 41.5948 135.62 41.4605C137.37 39.8695 138.617 36.7592 139.295 33.5201C139.359 33.2142 139.418 32.9071 139.471 32.6001C139.51 32.3773 139.547 32.1546 139.58 31.9323C139.589 31.8749 139.598 31.8175 139.606 31.7601C139.755 32.0408 139.904 32.3209 140.052 32.6001C140.214 32.9078 140.376 33.2145 140.536 33.5201C140.778 33.9811 141.016 34.4393 141.252 34.8941C142.028 36.3949 142.769 37.8586 143.461 39.2616C143.942 40.2352 144.4 41.1796 144.83 42.087C144.836 42.0981 144.841 42.1091 144.846 42.1201H151.846C154.046 42.1201 154.486 41.0401 153.006 38.8001C152.62 38.2154 152.233 37.6163 151.846 37.0049C151.322 36.1767 150.797 35.3258 150.273 34.4575C150.205 34.3453 150.138 34.2328 150.07 34.1201C149.769 33.6186 149.469 33.1116 149.169 32.6001C148.87 32.0913 148.573 31.578 148.276 31.0612C147.998 30.577 147.72 30.0897 147.444 29.6001C147.239 29.2378 147.035 28.8743 146.831 28.5098C146.746 28.3562 146.66 28.2025 146.574 28.0485C146.4 27.7349 146.226 27.4207 146.053 27.106C145.855 26.7471 145.658 26.3877 145.462 26.0281C145.282 25.6987 145.102 25.3691 144.924 25.0396C144.886 24.9695 144.848 24.8994 144.81 24.8293C144.769 24.7528 144.727 24.6765 144.686 24.6001C144.697 24.5302 144.709 24.4609 144.721 24.3922C144.723 24.3804 144.725 24.3686 144.727 24.3568C144.916 23.2797 145.191 22.352 145.53 21.6001C146.004 20.55 146.602 19.8429 147.266 19.551C147.492 19.4513 147.727 19.4001 147.966 19.4001C148.6 19.4001 149.171 19.7528 149.442 20.5182C149.546 20.8154 149.606 21.1749 149.606 21.6001C149.897 21.6001 150.175 21.5619 150.441 21.4904C150.604 21.4466 150.761 21.3904 150.913 21.3228C151.207 21.1925 151.48 21.0199 151.733 20.8125C152.019 20.5765 152.278 20.2955 152.505 19.9809C153.206 19.0108 153.606 17.7204 153.606 16.4401C153.606 13.4401 151.446 12.5601 150.046 12.5601C149.312 12.5601 148.615 12.9023 147.966 13.4899C147.95 13.5045 147.934 13.5192 147.918 13.534C147.708 13.7283 147.504 13.9481 147.305 14.1901C146.794 14.812 146.318 15.5806 145.885 16.4401C145.806 16.5957 145.729 16.7544 145.653 16.9157C145.569 17.0954 145.486 17.2784 145.406 17.4643C145.388 17.5049 145.37 17.5457 145.353 17.5867C144.814 18.8476 144.357 20.2323 143.999 21.6001C143.916 21.9189 143.838 22.2368 143.766 22.552C143.758 22.5833 143.751 22.6145 143.744 22.6456C143.609 23.2427 143.493 23.8294 143.4 24.3936C143.388 24.4628 143.377 24.5316 143.366 24.6001H142.726C142.733 24.5669 142.739 24.5341 142.745 24.5016C142.759 24.4312 142.773 24.3624 142.785 24.295C143.005 23.1216 143.048 22.3753 142.863 21.6001C142.826 21.4468 142.781 21.2924 142.726 21.1334C142.61 20.7976 142.453 20.441 142.25 20.0306C142.142 19.8109 142.021 19.5757 141.886 19.3201C141.763 19.0748 141.575 18.7069 141.344 18.253C140.962 17.5061 140.462 16.5262 139.938 15.4769C139.687 14.9754 139.431 14.4582 139.18 13.9428ZM155.65 27.8338C157.045 26.9421 158.166 25.8081 158.993 24.6615C160.75 22.2266 161.606 19.2702 161.606 16.4401C161.606 12.8021 160.185 9.48676 157.468 7.22576C155.036 5.20147 152.215 4.56006 150.046 4.56006C147.744 4.56006 145.842 5.29718 144.36 6.22439L143.777 5.00006H131.726C130.658 5.00006 129.021 5.11086 127.312 5.83019C125.383 6.64196 123.219 8.32862 122.224 11.2079C121.931 12.0577 121.788 12.8765 121.743 13.6383C123.942 14.6587 125.836 16.3559 127.233 18.5239C127.237 18.5296 127.241 18.5353 127.244 18.5411C128.609 20.6652 129.497 23.2399 129.729 26.0721C129.769 26.5608 129.789 27.0571 129.789 27.5601C129.789 28.4444 129.726 29.3081 129.605 30.1458C129.433 31.3274 129.146 32.4572 128.757 33.5201C128.172 35.1202 127.356 36.5687 126.357 37.8141C126.307 37.8766 126.256 37.9386 126.205 38.0001C124.997 39.4554 123.534 40.6203 121.898 41.4084C122.409 43.6429 123.471 45.741 125.242 47.4377C127.759 49.8481 130.79 50.5601 133.046 50.5601C135.49 50.5601 137.511 49.8372 139.158 48.795L139.786 50.1201H151.846C152.92 50.1201 154.542 50.0075 156.236 49.3026C158.131 48.5145 160.291 46.8743 161.324 44.034C162.256 41.471 161.805 39.1674 161.382 37.8372C160.942 36.4563 160.269 35.2811 159.681 34.39M159.681 34.39C158.356 32.3847 157.006 30.1698 155.65 27.8338L159.681 34.39ZM146.389 43.3033C146.389 43.3032 146.384 43.2945 146.374 43.2774C146.385 43.2948 146.39 43.3034 146.389 43.3033Z" fill="#FFBFDE"/>
<path fill-rule="evenodd" clip-rule="evenodd" d="M112.614 31.5025C112.651 32.1276 112.696 32.7154 112.749 33.2677C112.804 33.834 112.867 34.3632 112.938 34.8573C113.672 39.955 115.242 41.3201 116.79 41.3201C116.816 41.3201 116.843 41.3197 116.87 41.3188C118.393 41.2719 119.903 39.8631 120.612 34.8358C120.681 34.3455 120.742 33.8209 120.795 33.2597C120.845 32.7393 120.887 32.1876 120.921 31.6027C120.992 30.3998 121.03 29.0571 121.03 27.5601C121.03 26.0621 120.992 24.7193 120.921 23.5172C120.887 22.9341 120.845 22.3841 120.795 21.8655C120.743 21.3133 120.683 20.7967 120.615 20.3137C119.907 15.2795 118.395 13.8876 116.87 13.8413C116.843 13.8405 116.816 13.8401 116.79 13.8401C115.239 13.8401 113.668 15.1877 112.935 20.2921C112.865 20.779 112.803 21.3001 112.749 21.8575C112.696 22.4081 112.651 22.994 112.615 23.6173C112.546 24.7938 112.51 26.1035 112.51 27.5601C112.51 29.0157 112.546 30.3254 112.614 31.5025ZM99.4621 14.5077C103.127 8.64232 109.277 4.56006 116.87 4.56006C123.816 4.56006 129.455 7.97268 133.121 13.0001H131.726C129.526 13.0001 129.126 14.0801 130.606 16.3201C132.826 19.7163 135.13 23.6214 137.329 27.5601C137.479 27.8285 137.628 28.0972 137.777 28.3658C137.704 30.6147 137.329 32.8367 136.679 34.9555C136.224 35.4529 135.714 35.7201 135.166 35.7201C134.286 35.7201 133.526 35.0401 133.526 33.5201C131.126 33.5201 129.526 34.8801 129.526 38.0001C129.526 41.4641 131.44 42.4471 132.799 42.5506C129.129 47.3413 123.616 50.5601 116.87 50.5601C109.525 50.5601 103.531 46.7404 99.8295 41.1819C101.568 40.3411 102.836 38.7762 102.836 35.8801C102.836 32.824 101.413 29.5595 95.8149 29.3546C95.7977 29.1175 95.7839 28.8799 95.7734 28.6419C97.3334 28.4812 98.4892 28.0986 99.3428 27.5601C101.322 26.3113 101.676 24.2241 101.676 22.1201C101.676 19.2036 100.994 16.3306 99.4621 14.5077ZM104.718 21.8467C104.094 23.598 103.75 25.5244 103.75 27.5601C103.75 29.5954 104.094 31.5214 104.718 33.2725C106.67 38.7556 111.36 42.5231 116.79 42.5598C116.816 42.56 116.843 42.5601 116.87 42.5601C122.278 42.5601 126.887 38.8177 128.819 33.3496C129.445 31.578 129.79 29.6253 129.79 27.5601C129.79 25.4944 129.445 23.5414 128.819 21.7696C126.886 16.302 122.277 12.5601 116.87 12.5601C116.843 12.5601 116.816 12.5601 116.79 12.5603C111.36 12.597 106.67 16.3641 104.718 21.8467Z" fill="#FFBFDE"/>
<path fill-rule="evenodd" clip-rule="evenodd" d="M91.4907 13.5793C91.3255 13.6611 91.1645 13.751 91.0075 13.8486C90.5888 14.109 90.1989 14.4243 89.8353 14.7875C88.6318 15.9896 87.716 17.7165 86.9953 19.7139C86.8071 20.2356 86.6321 20.7757 86.4689 21.3298C86.4581 21.3664 86.4473 21.4032 86.4366 21.44C86.4107 21.529 86.3851 21.6184 86.3598 21.7081C86.3502 21.7421 86.3406 21.7762 86.3311 21.8103C86.2983 21.9278 86.266 22.0458 86.2342 22.1643C86.0351 22.9063 85.8546 23.6682 85.6889 24.44C85.5553 25.0621 85.4315 25.6905 85.3153 26.32H84.7153C84.7223 26.2844 84.7293 26.2488 84.7363 26.2132C84.8527 25.6222 84.9719 25.0311 85.0923 24.44C85.1531 24.1412 85.2142 23.8424 85.2753 23.5435C85.2784 23.5284 85.2815 23.5134 85.2845 23.4983C85.2948 23.4482 85.305 23.398 85.3153 23.3479C85.3894 22.9854 85.4635 22.6228 85.537 22.2602C85.5502 22.1954 85.5633 22.1305 85.5765 22.0657C85.6187 21.8572 85.6607 21.6486 85.7024 21.44C85.7085 21.4096 85.7146 21.3791 85.7207 21.3487C85.8951 20.4755 86.0646 19.6016 86.223 18.7268C86.5167 17.1055 86.7725 15.4809 86.9518 13.8507C86.9668 13.7139 86.9814 13.577 86.9953 13.44H81.1553C81.1151 13.44 81.0753 13.4404 81.0359 13.4411C80.0824 13.4585 79.3556 13.6872 78.8589 14.134C78.2522 14.6797 77.9889 15.5508 78.0753 16.76C78.1124 17.2402 78.1469 17.7305 78.1789 18.2296C78.2326 19.0692 78.2789 19.9339 78.3179 20.8174C78.3784 22.191 78.4212 23.6104 78.4461 25.0525C78.4464 25.0649 78.4466 25.0773 78.4468 25.0897C78.4988 28.1376 78.4714 31.2864 78.3644 34.32C78.3616 34.4001 78.3587 34.4801 78.3558 34.56C78.2518 37.3912 78.0783 40.1167 77.8353 42.56H90.7553C91.0344 42.56 91.3355 42.5641 91.6533 42.5684C94.328 42.6047 98.1935 42.6572 100.227 40.4254C101.068 39.5021 101.595 38.188 101.595 36.32C101.595 35.9667 101.576 35.6106 101.534 35.2568C101.407 34.1976 101.072 33.1588 100.414 32.2756C99.9405 31.6394 99.2993 31.0841 98.448 30.6601C97.4884 30.1822 96.2619 29.8713 94.7074 29.8C94.2628 29.7796 93.7913 29.7788 93.2915 29.7993C93.2861 29.7996 93.2807 29.7998 93.2753 29.8V29.16C95.6206 29.1006 97.2112 28.6226 98.2843 27.8793C98.8222 27.5067 99.2301 27.0675 99.5378 26.5808C100.226 25.4928 100.413 24.168 100.433 22.8223C100.435 22.7349 100.435 22.6475 100.435 22.56C100.435 18.1082 98.8448 13.758 95.0725 13.0887C94.7435 13.0304 94.3979 13 94.0353 13C93.0908 13 92.2469 13.2049 91.4907 13.5793ZM90.4968 5.44H81.1553C78.9142 5.44 75.5212 5.98273 72.8907 8.792C70.2513 11.6108 69.9328 15.0503 70.0956 17.33L70.0973 17.3534L70.0991 17.3767C70.6646 24.6909 70.5858 34.6189 69.8746 41.7681L69 50.56H90.7553C90.8678 50.56 91.0295 50.5639 91.2334 50.5687C92.7453 50.6047 96.578 50.6961 99.8768 49.6816C102.002 49.028 104.596 47.7593 106.63 45.2432C107.699 43.9202 108.448 42.4573 108.926 40.9192C107.228 39.7735 105.774 38.2013 104.682 36.32C104.247 35.5695 103.868 34.7698 103.555 33.9283C102.882 32.1202 102.509 30.1194 102.509 28C102.509 26.6141 102.668 25.2788 102.967 24.015C103.084 23.5186 103.223 23.0331 103.382 22.56C104.25 19.9791 105.719 17.7634 107.587 16.1168C107.187 14.6962 106.624 13.2847 105.851 11.9521C103.676 8.20101 99.6843 5 94.0353 5C92.7614 5 91.5836 5.15798 90.4968 5.44ZM90.5995 21.6275C90.4234 21.5296 90.2264 21.469 90.0091 21.4482C89.9526 21.4427 89.8946 21.44 89.8353 21.44C89.4145 21.44 89.0257 21.5723 88.6753 21.8108C88.439 21.9717 88.2201 22.1809 88.0206 22.4305C87.9503 22.5184 87.8824 22.6114 87.8169 22.709C87.4962 23.1876 87.2353 23.7784 87.0442 24.44C86.855 25.0951 86.7343 25.8198 86.6916 26.574C86.6891 26.6181 86.6869 26.6623 86.6849 26.7066C86.68 26.8172 86.6768 26.9284 86.6753 27.04C86.6753 27.4848 86.7558 27.9588 86.9699 28.3558C87.123 28.6395 87.3445 28.8839 87.6537 29.05C87.7316 29.0918 87.8151 29.1287 87.9045 29.16C88.0408 29.2077 88.1907 29.2424 88.3554 29.2618C88.4564 29.2738 88.563 29.28 88.6753 29.28C88.9632 29.28 89.2242 29.2375 89.4608 29.16C89.5931 29.1167 89.7178 29.0624 89.8353 28.9984C90.3953 28.6936 90.7913 28.1693 91.0686 27.5669C91.0946 27.5104 91.1195 27.4532 91.1435 27.3954C91.1834 27.299 91.2206 27.201 91.2552 27.1019C91.2623 27.0813 91.2694 27.0607 91.2764 27.04C91.5901 26.107 91.6753 25.0914 91.6753 24.44C91.6753 23.9928 91.6391 23.5886 91.5677 23.2323C91.4109 22.4491 91.0844 21.897 90.5995 21.6275ZM86.7315 38.0813C86.9631 40.6543 87.829 41.32 89.0753 41.32C89.7268 41.32 90.2843 41.1433 90.7553 40.8426C91.7348 40.2174 92.3407 39.0562 92.6422 37.8336C92.7071 37.5703 92.7579 37.3042 92.7953 37.04C92.802 36.9923 92.8083 36.9447 92.8142 36.8972C92.8331 36.7439 92.8476 36.5914 92.8577 36.4409C92.8695 36.2642 92.8753 36.09 92.8753 35.92C92.8753 35.4625 92.8342 35.0436 92.7584 34.6599C92.753 34.6325 92.7474 34.6053 92.7417 34.5783C92.6243 34.0277 92.4347 33.5509 92.1924 33.1375C91.3694 31.7335 89.9393 31.0606 88.6753 30.7081C87.9622 30.5092 87.302 30.4122 86.8333 30.3434C86.7779 30.3352 86.7251 30.3275 86.6753 30.32V37.04C86.6757 37.0568 86.6761 37.0735 86.6765 37.0902C86.6858 37.4484 86.7043 37.7781 86.7315 38.0813Z" fill="#FFBFDE"/>
<path fill-rule="evenodd" clip-rule="evenodd" d="M56.7349 26.9574C56.3931 27.4479 56.0805 27.9672 55.8058 28.5056C55.5842 28.9397 55.3873 29.3862 55.2196 29.84H54.5796C54.6181 29.7754 54.6561 29.7106 54.6935 29.6456C54.8826 29.3169 55.0577 28.9832 55.2196 28.6453C55.2674 28.5455 55.3141 28.4454 55.3596 28.345C55.6966 27.6021 55.9728 26.8401 56.1992 26.0674C56.402 25.3749 56.5649 24.6738 56.6955 23.9699C56.8365 23.21 56.9401 22.4468 57.0159 21.688C57.0388 21.4582 57.0593 21.2288 57.0774 21C57.0903 20.8382 57.102 20.6767 57.1126 20.5156C57.145 20.0269 57.1679 19.5417 57.1839 19.062C57.2133 18.1784 57.2196 17.3134 57.2196 16.48C57.2196 16.3864 57.2227 16.2959 57.2287 16.2084C57.3205 14.8741 58.1083 14.24 59.4596 14.24C59.9309 14.24 60.3217 14.3601 60.6298 14.5732C60.8166 14.7025 60.9731 14.8659 61.0987 15.0576C61.1246 15.0971 61.1492 15.1379 61.1725 15.1798C61.3725 15.5398 61.4752 15.9844 61.4776 16.48C61.4784 16.6353 61.4694 16.7957 61.4504 16.96C61.3578 17.7611 61.0295 18.6566 60.4557 19.5265C60.4181 19.5834 60.3795 19.6402 60.3398 19.6969C60.0889 20.0556 59.7957 20.4084 59.4596 20.747C59.375 20.8323 59.2876 20.9167 59.1975 21C59.1394 21.0538 59.0801 21.1071 59.0196 21.16C59.1639 21.2119 59.3106 21.2605 59.4596 21.3057C60.1622 21.5186 60.9148 21.6548 61.6925 21.7017C61.7481 21.7051 61.8038 21.708 61.8596 21.7104C62.0055 21.7168 62.1523 21.72 62.2996 21.72C62.4065 21.72 62.5132 21.718 62.6196 21.7138C63.4991 21.6797 64.3571 21.501 65.0951 21.1254C65.4783 20.9304 65.829 20.6824 66.1337 20.3738C66.8722 19.626 67.3396 18.5229 67.3396 16.96C67.3396 16.6431 67.3202 16.312 67.2645 15.982C67.0108 14.4791 66.0051 13 62.6596 13H51.4196C50.7128 13 50.1257 13.1115 49.6597 13.3371C48.6752 13.8137 48.231 14.7997 48.3396 16.32C48.4181 17.4447 48.4849 18.5714 48.5401 19.6994C48.5981 20.8844 48.6433 22.0707 48.6756 23.2575C48.6897 23.7748 48.7014 24.2922 48.7106 24.8095C48.7174 25.1921 48.7229 25.5747 48.727 25.9573C48.7285 26.0893 48.7297 26.2212 48.7308 26.3532C48.7339 26.7169 48.7358 27.0805 48.7364 27.444C48.7371 27.8146 48.7365 28.1851 48.7347 28.5556C48.7324 29.0247 48.728 29.4938 48.7217 29.9626C48.7147 30.4798 48.7053 30.9967 48.6934 31.5133C48.692 31.5747 48.6905 31.636 48.689 31.6974C48.6695 32.5058 48.644 33.3135 48.6125 34.12C48.6005 34.4276 48.5877 34.735 48.5739 35.0422C48.5507 35.5619 48.5249 36.0811 48.4967 36.5997C48.4741 37.0135 48.45 37.427 48.4243 37.84C48.3352 39.2723 48.2269 40.6995 48.0996 42.12H62.6596C64.349 42.12 65.4418 41.7428 66.1423 41.1673C67.1336 40.353 67.3396 39.1416 67.3396 38.04C67.3396 35.3297 66.0577 33.9217 64.3792 33.3371C64.3727 33.3348 64.3661 33.3325 64.3596 33.3303C64.1726 33.266 63.9808 33.2118 63.7853 33.1672C63.3941 33.0779 62.9883 33.0265 62.5777 33.008C62.4722 33.0032 62.3665 33.0006 62.2606 33.0001C62.2469 33 62.2333 33 62.2196 33C62.1389 33 62.0581 33.0013 61.9774 33.0037C61.9381 33.0049 61.8989 33.0063 61.8596 33.0081C61.4789 33.025 61.1001 33.0677 60.7296 33.13C60.5687 33.157 60.4093 33.1877 60.2521 33.2216C60.1578 33.2419 60.0644 33.2634 59.9718 33.2859C59.7559 33.3382 59.5447 33.3962 59.3396 33.4582C59.2312 33.4911 59.1245 33.5251 59.0196 33.56C59.1301 33.6568 59.2368 33.7556 59.3396 33.856C59.3563 33.8722 59.3728 33.8885 59.3892 33.9048C59.4607 33.9758 59.5303 34.0475 59.598 34.12C59.9698 34.518 60.2852 34.9377 60.5454 35.3651C60.5591 35.3878 60.5728 35.4104 60.5862 35.4331C60.7727 35.7472 60.9295 36.065 61.0569 36.3811C61.107 36.5054 61.1526 36.6295 61.1937 36.753C61.3406 37.1949 61.4297 37.629 61.462 38.04C61.5178 38.7497 61.4043 39.3903 61.1272 39.8827C61.0283 40.0585 60.9085 40.2154 60.7682 40.3498C60.4185 40.6847 59.941 40.88 59.3396 40.88H58.9396C57.7432 40.88 57.0885 39.5024 56.7407 37.84C56.6444 37.3797 56.5716 36.8976 56.5174 36.4168C56.5173 36.4162 56.5172 36.4156 56.5171 36.415C56.4264 35.6097 56.3876 34.8084 56.3774 34.12C56.3752 33.9778 56.3744 33.8404 56.3745 33.7088C56.375 33.1088 56.3966 32.6289 56.4196 32.36C56.4659 31.938 56.5631 31.5386 56.7027 31.164C56.7086 31.1481 56.7146 31.1322 56.7207 31.1164C56.8028 30.9028 56.8988 30.6973 57.0069 30.5005C57.197 30.1547 57.4248 29.8356 57.6814 29.5454C57.7872 29.4259 57.8979 29.3113 58.0129 29.2017C58.1415 29.0793 58.2754 28.9632 58.4138 28.8537C59.4321 28.0484 60.6946 27.6 61.8596 27.6C61.9815 27.6 62.1015 27.6048 62.2196 27.6143C62.2464 27.6164 62.2731 27.6188 62.2996 27.6214C62.408 27.6322 62.5147 27.647 62.6196 27.6659C62.6499 27.6714 62.6801 27.6772 62.7101 27.6833C63.1036 27.7637 63.471 27.9024 63.8061 28.0994C63.8429 28.121 63.8793 28.1433 63.9153 28.1664C64.0935 28.2804 64.2619 28.4116 64.4196 28.56C64.5296 28.3456 64.6276 28.1343 64.714 27.9266C64.9443 27.3732 65.0924 26.8456 65.1642 26.3548C65.2196 25.9761 65.2295 25.6193 65.1967 25.2898C65.1488 24.8097 65.0103 24.3874 64.7893 24.0388C64.3586 23.3592 63.6147 22.96 62.6196 22.96C62.5137 22.96 62.407 22.9647 62.2996 22.974C62.154 22.9866 62.0072 23.0076 61.8596 23.0365C61.547 23.098 61.2307 23.1953 60.914 23.325C59.9459 23.7214 58.9743 24.4197 58.093 25.3156C58.0111 25.3987 57.9301 25.4836 57.8498 25.5701C57.6454 25.7906 57.4466 26.0216 57.2545 26.2617C57.2102 26.3171 57.1663 26.3729 57.1227 26.4292C57.0098 26.5752 56.8994 26.7244 56.7918 26.8764C56.7727 26.9033 56.7538 26.9303 56.7349 26.9574ZM72.5791 29.679C74.4894 32.0642 75.3396 35.025 75.3396 38.04C75.3396 39.576 75.1538 42.9588 72.653 45.9333C69.9327 49.1688 66.0687 50.12 62.6596 50.12H39.3506L40.0922 41.8447C40.3477 41.7319 40.5968 41.6066 40.8393 41.4693C42.2859 40.65 43.4952 39.4023 44.3881 37.84C45.2152 36.3927 45.7707 34.6755 45.9917 32.7787C46.114 31.729 46.1339 30.6243 46.0406 29.48H45.6006C45.6 29.5204 45.5991 29.5608 45.5978 29.6012C45.5717 30.4286 45.3946 31.2403 45.0766 31.9766C44.5422 33.2142 43.6098 34.2392 42.3272 34.7695C41.7969 34.9887 41.2068 35.1234 40.5602 35.1535C40.7282 31.6396 40.7763 28.0974 40.7043 24.5554C41.7321 24.5276 42.714 24.3726 43.5671 24.0508C44.6734 23.6336 45.5633 22.9361 46.0566 21.8725C46.3291 21.2849 46.4806 20.5856 46.4806 19.76C46.4806 18.5285 46.1288 17.4465 45.5295 16.5207C45.5285 16.5192 45.5276 16.5177 45.5266 16.5163C44.4716 14.8894 42.6519 13.7452 40.634 13.1193C41.0006 11.5336 41.748 9.85461 43.155 8.352C45.7855 5.54273 49.1785 5 51.4196 5H62.6596C66.0727 5 69.8929 5.95112 72.6037 9.11367C75.1226 12.0524 75.3396 15.3987 75.3396 16.96C75.3396 19.6229 74.6454 22.22 73.1502 24.3969C73.3547 26.2698 73.0825 28.0729 72.5791 29.679Z" fill="#FFBFDE"/>
<path fill-rule="evenodd" clip-rule="evenodd" d="M33.0847 20.9423C33.0738 21.0402 33.0634 21.1387 33.0535 21.2376C32.9665 22.1113 32.9203 23.0259 32.9203 23.9601C32.9203 24.9509 32.9727 25.8586 33.0699 26.6896C33.1458 27.3387 33.249 27.941 33.3759 28.4995C33.6856 29.8628 34.1364 30.9652 34.6752 31.8507C35.3809 33.0106 36.2377 33.7985 37.1264 34.3135C38.201 34.9362 39.3225 35.1601 40.2803 35.1601C42.6474 35.1601 44.2998 33.7903 45.0837 31.9597C45.4079 31.2025 45.5836 30.3665 45.5997 29.516C45.6 29.504 45.6002 29.492 45.6003 29.4801H46.0403C46.0405 29.4821 46.0406 29.4841 46.0408 29.4861C46.1008 30.2249 46.1136 30.9472 46.0821 31.6487C46.0724 31.8657 46.0584 32.0807 46.0403 32.2936C45.9644 33.1855 45.8157 34.0406 45.6003 34.8498C44.7457 38.0615 42.8421 40.5515 40.2803 41.7588C39.1784 42.2781 37.9547 42.5601 36.6403 42.5601C36.4747 42.5601 36.3088 42.5556 36.1428 42.5466C30.83 42.2602 25.3974 37.399 25.0572 28.5275C25.046 28.236 25.0403 27.9402 25.0403 27.6401C25.0403 27.3959 25.0441 27.1537 25.0516 26.9136C25.0836 25.8903 25.1833 24.9038 25.3458 23.9601C25.5403 22.8314 25.8247 21.7641 26.1912 20.7687C27.9793 15.9121 31.7196 12.768 36.4803 12.57C36.6392 12.5634 36.7992 12.5601 36.9603 12.5601C41.2669 12.5601 46.1755 14.9309 46.4667 19.3439C46.4757 19.4807 46.4803 19.6194 46.4803 19.7601C46.4803 20.409 46.3867 20.98 46.2143 21.4801C46.1631 21.6285 46.105 21.7706 46.0403 21.9067C45.9167 22.1668 45.7691 22.4047 45.6003 22.6217C45.5772 22.6514 45.5538 22.6807 45.5299 22.7096C44.5208 23.9312 42.8138 24.4612 40.9291 24.5473C40.7411 24.5559 40.5513 24.5601 40.3603 24.5601C39.4671 24.5601 38.5541 24.4714 37.6703 24.3136C37.1411 24.2192 36.6223 24.0999 36.1244 23.9601C35.7784 23.8629 35.4425 23.7557 35.1203 23.6401C35.8024 23.0532 36.3676 22.4601 36.8303 21.8715C37.1609 21.4509 37.4391 21.0327 37.6704 20.6207C38.5705 19.017 38.7583 17.5081 38.5459 16.3261C38.3275 15.1105 37.6858 14.2408 36.9603 13.9695C36.8031 13.9107 36.642 13.8801 36.4803 13.8801C34.8361 13.8801 33.5297 16.9462 33.0847 20.9423ZM48.6173 21.4801C48.716 24.0726 48.7534 26.6694 48.7294 29.2608C48.7286 29.3482 48.7277 29.4355 48.7268 29.5229C48.7236 29.8142 48.7197 30.1054 48.715 30.3965C48.6598 33.8097 48.4981 37.2109 48.2299 40.578C48.1889 41.0928 48.1454 41.6069 48.0994 42.1201H51.1232C48.3061 46.994 43.4809 50.5601 36.6403 50.5601C30.2785 50.5601 24.7434 47.2965 21.1929 42.0296C22.7028 41.7277 23.4027 40.6666 23.2694 38.8001C23.0127 35.1385 22.8805 31.4404 22.8727 27.7433C22.8726 27.7089 22.8726 27.6745 22.8725 27.6401C22.8705 26.2879 22.8851 24.9359 22.9164 23.586C22.9987 20.0322 23.1964 16.4924 23.5094 13.0001H21.2668C24.5925 8.02102 29.8546 4.56006 36.9603 4.56006C40.5317 4.56006 44.504 5.53905 47.8187 7.74585C49.6909 8.99228 51.488 10.7512 52.7429 13.0001H51.4194C49.2194 13.0001 48.1794 14.0801 48.3394 16.3201C48.4193 17.4649 48.4871 18.6118 48.5428 19.7601C48.5707 20.3331 48.5955 20.9065 48.6173 21.4801Z" fill="#FFBFDE"/>
<path fill-rule="evenodd" clip-rule="evenodd" d="M32.2587 5L31.4777 13.7141C31.4673 13.8305 31.457 13.9469 31.4468 14.0634C27.5133 16.4293 25.0406 21.4014 25.0406 27.64C25.0406 32.3006 26.4108 35.922 28.459 38.4293C28.4608 38.4315 28.4626 38.4337 28.4644 38.4359C29.2764 39.4286 30.1949 40.2464 31.1765 40.8846C30.928 42.7746 30.1971 44.9066 28.4542 46.768C25.8237 49.5773 22.4308 50.12 20.1896 50.12H5.60059L6.38157 41.4059C7.10298 33.3565 7.17991 25.0633 6.60939 16.8819C6.44789 14.6022 6.76876 11.1674 9.40502 8.352C12.0355 5.54273 15.4285 5 17.6696 5H32.2587ZM14.5896 16.32C14.749 18.604 14.8604 20.8965 14.9238 23.1907C15.0046 26.1129 15.0075 29.0379 14.9327 31.9518C14.9141 32.6753 14.8907 33.3981 14.8625 34.12C14.7578 36.8028 14.5869 39.4731 14.3496 42.12H20.1896C21.1687 42.12 21.9181 41.9061 22.4341 41.4712C23.0776 40.929 23.3584 40.0431 23.2696 38.8C23.1102 36.5258 22.9988 34.2374 22.9354 31.944C22.8547 29.0256 22.8517 26.099 22.9265 23.1826C22.9452 22.4543 22.9687 21.7267 22.997 21C23.1018 18.3158 23.2726 15.6443 23.5096 13H17.6696C16.6906 13 15.9412 13.2139 15.4252 13.6487C14.7816 14.191 14.5008 15.0769 14.5896 16.32Z" fill="#FFBFDE"/>
</svg>
